<svg xmlns="http://www.w3.org/2000/svg" xmlns:xlink="http://www.w3.org/1999/xlink" width="1246" height="1172" viewBox="0 0 1246 1172">
  <defs>
    <path id="x-a" d="M537.547321,1095.45972 L182.496144,600.532057 C171.212145,584.821643 171.317835,563.452503 182.744827,547.853774 L526.039507,79.0729054 C554.81215,40.9881827 534.668813,0.0058441438 491.509849,0.0058441438 L304.518757,0.0058441438 C278.599754,0.0058441438 252.730488,8.77314836 235.471876,32.2022642 L5.62023962,368.561473 L0.714964111,375.67211 L93.7411205,510.532235 C118.845686,546.910653 118.845686,595.425552 93.7411205,631.797765 L0.714964111,766.633071 L5.62023962,773.737504 L264.238301,1148.21246 C272.842739,1159.92081 287.22906,1171.61055 310.275773,1171.61055 L503.02388,1171.61055 C551.939859,1171.61055 563.441456,1133.55685 537.547321,1095.45972 Z"/>
    <path id="x-c" d="M330.977538,32.2022642 C312.868346,8.77314836 285.732438,0.0058441438 258.540771,0.0058441438 L62.3878068,0.0058441438 C17.1179255,0.0058441438 -4.00223666,40.9881827 26.1756191,79.0729054 L386.283988,547.853774 C398.265916,563.452503 398.383629,584.821643 386.544195,600.532057 L14.1007595,1095.48454 C-13.0537348,1133.55685 -0.985070634,1171.61055 50.3191427,1171.61055 L252.506439,1171.61055 C276.68094,1171.61055 291.772966,1159.92081 300.824464,1148.21246 L572.084417,773.737504 L674.847729,631.797765 C701.178234,595.425552 701.178234,546.910653 674.847729,510.532235 L572.084417,368.561473 L330.977538,32.2022642 Z"/>
  </defs>
  <g fill="none" fill-rule="evenodd">
    <g transform="translate(695)">
      <mask id="x-b" fill="#fff">
        <use xlink:href="#x-a"/>
      </mask>
      <rect width="586.55" height="1207.797" x="-17.42" y="-18.087" fill="#42AAFF" mask="url(#x-b)"/>
    </g>
    <mask id="x-d" fill="#fff">
      <use xlink:href="#x-c"/>
    </mask>
    <rect width="730.743" height="1207.797" x="-18.072" y="-18.087" fill="#494949" mask="url(#x-d)"/>
  </g>
</svg>
