<svg xmlns="http://www.w3.org/2000/svg" xmlns:xlink="http://www.w3.org/1999/xlink" width="131" height="26" viewBox="0 0 131 26">
  <defs>
    <path id="xdesign-logo-a" d="M11.5635899,23.5430595 L3.92581355,12.9168638 C3.68307485,12.5795581 3.68534844,12.1207584 3.93116316,11.7858506 L11.3160365,1.72103179 C11.9349867,0.903345195 11.5016681,0.0234462106 10.5732427,0.0234462106 L6.55073494,0.0234462106 C5.99317152,0.0234462106 5.43667802,0.211681981 5.06541487,0.714709773 L0.120901255,7.93640908 L0.0153801376,8.08907589 L2.01653664,10.9845497 C2.55658008,11.7656016 2.55658008,12.8072261 2.01653664,13.5881448 L0.0153801376,16.4830857 L0.120901255,16.6356193 L5.68423136,24.6756713 C5.86932797,24.927052 6.17880309,25.178033 6.67457848,25.178033 L10.8209298,25.178033 C11.8731987,25.178033 12.1206183,24.3610125 11.5635899,23.5430595 Z"/>
    <path id="xdesign-logo-c" d="M7.14480947,0.714709773 C6.75388649,0.211681981 6.16810386,0.0234462106 5.58111757,0.0234462106 L1.34676509,0.0234462106 C0.369524522,0.0234462106 -0.086396251,0.903345195 0.56505288,1.72103179 L8.33870937,11.7858506 C8.59736316,12.1207584 8.59990422,12.5795581 8.34432646,12.9168638 L0.304392983,23.5435923 C-0.281790868,24.3610125 -0.0212647119,25.178033 1.08623893,25.178033 L5.45085449,25.178033 C5.97270925,25.178033 6.29850068,24.927052 6.4938953,24.6756713 L12.3495818,16.6356193 L14.5679326,13.5881448 C15.1363289,12.8072261 15.1363289,11.7656016 14.5679326,10.9845497 L12.3495818,7.93640908 L7.14480947,0.714709773 Z"/>
    <path id="xdesign-logo-e" d="M0.125024219,20.6989268 C0.125024219,21.0008346 0.360300729,21.2726179 0.654262077,21.2726179 L7.23945286,21.2726179 C12.91335,21.2726179 17.5583153,16.5307422 17.5583153,10.6710781 C17.5583153,4.87192821 12.91335,0.129787148 7.23945286,0.129787148 L0.654262077,0.129787148 C0.360300729,0.129787148 0.125024219,0.401703167 0.125024219,0.7036109 L0.125024219,20.6989268 Z M2.50236444,19.7064135 L2.50236444,2.47896107 L6.89446122,2.47896107 C11.6965461,2.47896107 15.1809751,6.0591223 15.1809751,11.077426 C15.1809751,16.1262522 11.6965461,19.7064135 6.89446122,19.7064135 L2.50236444,19.7064135 Z M20.7278337,20.6989268 C20.7278337,21.0008346 20.9627074,21.2726179 21.2854068,21.2726179 L32.8490056,21.2726179 C33.171705,21.2726179 33.4064444,21.0008346 33.4064444,20.6989268 L33.4064444,19.8227972 C33.4064444,19.5208895 33.171705,19.2489735 32.8490056,19.2489735 L22.98767,19.2489735 L22.98767,11.5469423 L31.4108913,11.5469423 C31.7041812,11.5469423 31.9683302,11.3052834 31.9683302,10.9729858 L31.9683302,10.0972543 C31.9683302,9.7950812 31.7041812,9.52329788 31.4108913,9.52329788 L22.98767,9.52329788 L22.98767,2.15343155 L32.8490056,2.15343155 C33.171705,2.15343155 33.4064444,1.88164824 33.4064444,1.5796078 L33.4064444,0.7036109 C33.4064444,0.401703167 33.171705,0.129787148 32.8490056,0.129787148 L21.2854068,0.129787148 C20.9627074,0.129787148 20.7278337,0.401703167 20.7278337,0.7036109 L20.7278337,20.6989268 Z M36.9308919,19.5891007 C37.3305397,19.9544423 39.7879169,22.0557201 43.4124106,22.0557201 C47.0062862,22.0557201 50.0471545,19.7413153 50.0471545,16.57427 C50.0471545,13.0418832 47.3749129,11.488684 43.2280301,9.81379284 C40.6479116,8.74802537 39.0812816,7.56016774 39.0812816,5.519935 C39.0812816,4.24090787 40.0642862,2.17015259 43.3202875,2.17015259 C45.1940393,2.17015259 47.1291617,3.44917972 47.3441604,3.57100447 C47.8355284,3.8450438 48.1429188,3.72321905 48.4192881,3.29683244 C48.5421637,3.11409532 48.664905,2.90096836 48.7877806,2.71836395 C49.1564073,2.13976276 48.7877806,1.77428852 48.6035343,1.68285361 C48.6035343,1.68285361 46.3612901,0.129787148 43.35104,0.129787148 C38.467038,0.129787148 36.8081506,3.47956956 36.8081506,5.55045754 C36.8081506,9.02193199 38.8355305,10.392394 42.2144073,11.8540256 C45.7469122,13.3157898 47.5899116,14.5642944 47.5899116,16.6655722 C47.5899116,18.4621555 45.9619109,20.0153546 43.4737813,20.0153546 C40.740169,20.0153546 38.4976562,17.883687 38.2826575,17.7009499 C37.8527944,17.3354756 37.5147859,17.5791251 37.2075298,17.9749892 C37.0540361,18.1577263 36.900408,18.370986 36.7469143,18.5537231 C36.3781532,19.1323243 36.6854093,19.3759738 36.9308919,19.5891007 Z M53.2169414,20.6989268 C53.2169414,21.0008346 53.4912964,21.2726179 53.796001,21.2726179 L55.0150878,21.2726179 C55.3199267,21.2726179 55.5941474,21.0008346 55.5941474,20.6989268 L55.5941474,0.7036109 C55.5941474,0.401703167 55.3199267,0.129787148 55.0150878,0.129787148 L53.796001,0.129787148 C53.4912964,0.129787148 53.2169414,0.401703167 53.2169414,0.7036109 L53.2169414,20.6989268 Z M58.7638,11.1232098 C58.7638,17.2137836 63.5273436,22.0557201 69.4448433,22.0557201 C73.7348795,22.0557201 76.7526499,20.0458772 76.7526499,20.0458772 C76.8710939,19.9544423 76.9894036,19.7109255 76.9894036,19.5585782 L76.9894036,12.5848413 C76.9894036,12.2802795 76.7526499,12.0063729 76.4568085,12.0063729 L71.3383358,12.0063729 C71.0128162,12.0063729 70.7761968,12.2500224 70.7761968,12.5848413 L70.7761968,13.7116539 C70.7761968,14.0162158 71.0128162,14.2598653 71.3383358,14.2598653 L74.7408477,14.2598653 L74.7408477,18.5232006 C74.7408477,18.5232006 72.6696893,19.8022277 69.4151652,19.8022277 C64.7403874,19.8022277 61.1898876,15.691107 61.1898876,11.0013851 C61.1898876,6.28127331 64.7403874,2.2615875 69.4151652,2.2615875 C71.3975578,2.2615875 73.5276697,3.2663099 75.0365549,4.63677194 C75.3620744,4.94133381 75.5396061,4.97185635 75.8059037,4.66729448 C76.0425231,4.39312245 76.3680427,4.08869329 76.6344745,3.81465396 C76.8710939,3.57100447 76.8415501,3.20553023 76.6047964,2.96188074 C74.5928599,1.19555462 72.4329356,0.129787148 69.4448433,0.129787148 C63.5273436,0.129787148 58.7638,5.03276872 58.7638,11.1232098 Z M80.951503,21.172557 C80.951503,21.4772516 81.226798,21.7512909 81.5325769,21.7512909 L82.6030045,21.7512909 C82.9394015,21.7512909 83.1840784,21.4772516 83.1840784,21.172557 L83.1840784,4.60638211 L83.2148308,4.60638211 L97.2531302,22.0557201 L97.8034517,22.0557201 C98.1093649,22.0557201 98.3845256,21.8122033 98.3845256,21.5076414 L98.3845256,1.01295021 C98.3845256,0.708388341 98.1093649,0.434349014 97.8034517,0.434349014 L96.7331584,0.434349014 C96.3966271,0.434349014 96.1518159,0.708388341 96.1518159,1.01295021 L96.1518159,17.2441734 L96.0907139,17.2441734 L82.2972256,0.129787148 L81.5325769,0.129787148 C81.226798,0.129787148 80.951503,0.373436641 80.951503,0.677865801 L80.951503,21.172557 Z"/>
  </defs>
  <g fill="none" fill-rule="evenodd">
    <g transform="translate(14.979)">
      <mask id="xdesign-logo-b" fill="#fff">
        <use xlink:href="#xdesign-logo-a"/>
      </mask>
      <rect width="12.618" height="25.932" x="-.375" y="-.365" fill="#FFF" mask="url(#xdesign-logo-b)"/>
    </g>
    <mask id="xdesign-logo-d" fill="#fff">
      <use xlink:href="#xdesign-logo-c"/>
    </mask>
    <rect width="15.775" height="25.932" x="-.39" y="-.365" fill="#FFF" mask="url(#xdesign-logo-d)"/>
    <g transform="translate(32.301 1.793)">
      <mask id="xdesign-logo-f" fill="#fff">
        <use xlink:href="#xdesign-logo-e"/>
      </mask>
      <rect width="99.043" height="22.7" x="-.267" y="-.257" fill="#FFF" mask="url(#xdesign-logo-f)"/>
    </g>
  </g>
</svg>
